<svg width="1em" height="1em" viewBox="0 0 12 13" fill="none">
                  <mask id="path-1-inside-1_1_289" fill="none">
                    <path
                      d="M5.52845 0.51877C6.73984 0.422201 7.95167 0.699842 9.0036 1.31496C10.0555 1.93007 10.898 2.85366 11.4194 3.96352C11.9409 5.07337 12.1168 6.31718 11.9239 7.53035C11.731 8.74351 11.1784 9.86886 10.3391 10.7575C9.49986 11.6461 8.41357 12.2561 7.22397 12.5067C6.03438 12.7574 4.79755 12.6369 3.67716 12.1612C2.55677 11.6855 1.60562 10.877 0.949575 9.84275C0.293533 8.80846 -0.0364815 7.59713 0.00320144 6.36903C0.00757751 6.21818 0.0710375 6.07526 0.179621 5.97172C0.288204 5.86818 0.433017 5.81249 0.582201 5.81692C0.731385 5.82134 0.872721 5.88551 0.975116 5.99531C1.07751 6.10511 1.13258 6.25155 1.1282 6.4024C1.09019 7.56491 1.45993 8.70357 2.17202 9.61703C2.88412 10.5305 3.89271 11.1599 5.01944 11.394C6.14618 11.6281 7.31848 11.4517 8.32905 10.8962C9.33962 10.3406 10.1234 9.44159 10.5417 8.35809C10.96 7.2746 10.986 6.07642 10.615 4.97543C10.2441 3.87443 9.50002 2.94155 8.51449 2.34174C7.52897 1.74192 6.36544 1.51381 5.22964 1.69774C4.09384 1.88167 3.05895 2.4658 2.30795 3.34683L2.15495 3.53567H3.5627L3.6392 3.54098C3.7744 3.55909 3.89849 3.62626 3.98837 3.72999C4.07825 3.83372 4.1278 3.96693 4.1278 4.10484C4.1278 4.24275 4.07825 4.37597 3.98837 4.47969C3.89849 4.58342 3.7744 4.65059 3.6392 4.66871L3.5627 4.67326H0.939201L0.862701 4.66871C0.740978 4.65178 0.628082 4.59502 0.541269 4.5071C0.454455 4.41918 0.398499 4.30493 0.381951 4.18182L0.376701 4.10446V1.07088L0.381951 0.994284C0.398499 0.871172 0.454455 0.756925 0.541269 0.669002C0.628082 0.58108 0.740978 0.524319 0.862701 0.507394L0.939201 0.502844L1.0157 0.507394C1.13742 0.524319 1.25032 0.58108 1.33713 0.669002C1.42395 0.756925 1.4799 0.871172 1.49645 0.994284L1.5017 1.07088L1.50095 2.55203C2.53049 1.36993 3.97537 0.640487 5.52845 0.51877ZM5.81195 3.53567L5.88845 3.54098C6.01017 3.5579 6.12307 3.61466 6.20988 3.70258C6.29669 3.79051 6.35265 3.90475 6.3692 4.02786L6.37445 4.10446V6.56697L7.68695 6.56773L7.76345 6.57304C7.89808 6.59177 8.02146 6.65916 8.11076 6.76274C8.20007 6.86633 8.24928 6.9991 8.24928 7.13653C8.24928 7.27395 8.20007 7.40673 8.11076 7.51031C8.02146 7.6139 7.89808 7.68128 7.76345 7.70001L7.68695 7.70532H5.81195L5.73545 7.70001C5.61383 7.68313 5.50102 7.62648 5.41422 7.53871C5.32742 7.45093 5.2714 7.33686 5.2547 7.21388L5.24945 7.13577V4.10446L5.2547 4.02786C5.27125 3.90475 5.3272 3.79051 5.41402 3.70258C5.50083 3.61466 5.61373 3.5579 5.73545 3.54098L5.81195 3.53643V3.53567Z"
                    />
                  </mask>
                  <path
                    d="M5.52845 0.51877C6.73984 0.422201 7.95167 0.699842 9.0036 1.31496C10.0555 1.93007 10.898 2.85366 11.4194 3.96352C11.9409 5.07337 12.1168 6.31718 11.9239 7.53035C11.731 8.74351 11.1784 9.86886 10.3391 10.7575C9.49986 11.6461 8.41357 12.2561 7.22397 12.5067C6.03438 12.7574 4.79755 12.6369 3.67716 12.1612C2.55677 11.6855 1.60562 10.877 0.949575 9.84275C0.293533 8.80846 -0.0364815 7.59713 0.00320144 6.36903C0.00757751 6.21818 0.0710375 6.07526 0.179621 5.97172C0.288204 5.86818 0.433017 5.81249 0.582201 5.81692C0.731385 5.82134 0.872721 5.88551 0.975116 5.99531C1.07751 6.10511 1.13258 6.25155 1.1282 6.4024C1.09019 7.56491 1.45993 8.70357 2.17202 9.61703C2.88412 10.5305 3.89271 11.1599 5.01944 11.394C6.14618 11.6281 7.31848 11.4517 8.32905 10.8962C9.33962 10.3406 10.1234 9.44159 10.5417 8.35809C10.96 7.2746 10.986 6.07642 10.615 4.97543C10.2441 3.87443 9.50002 2.94155 8.51449 2.34174C7.52897 1.74192 6.36544 1.51381 5.22964 1.69774C4.09384 1.88167 3.05895 2.4658 2.30795 3.34683L2.15495 3.53567H3.5627L3.6392 3.54098C3.7744 3.55909 3.89849 3.62626 3.98837 3.72999C4.07825 3.83372 4.1278 3.96693 4.1278 4.10484C4.1278 4.24275 4.07825 4.37597 3.98837 4.47969C3.89849 4.58342 3.7744 4.65059 3.6392 4.66871L3.5627 4.67326H0.939201L0.862701 4.66871C0.740978 4.65178 0.628082 4.59502 0.541269 4.5071C0.454455 4.41918 0.398499 4.30493 0.381951 4.18182L0.376701 4.10446V1.07088L0.381951 0.994284C0.398499 0.871172 0.454455 0.756925 0.541269 0.669002C0.628082 0.58108 0.740978 0.524319 0.862701 0.507394L0.939201 0.502844L1.0157 0.507394C1.13742 0.524319 1.25032 0.58108 1.33713 0.669002C1.42395 0.756925 1.4799 0.871172 1.49645 0.994284L1.5017 1.07088L1.50095 2.55203C2.53049 1.36993 3.97537 0.640487 5.52845 0.51877ZM5.81195 3.53567L5.88845 3.54098C6.01017 3.5579 6.12307 3.61466 6.20988 3.70258C6.29669 3.79051 6.35265 3.90475 6.3692 4.02786L6.37445 4.10446V6.56697L7.68695 6.56773L7.76345 6.57304C7.89808 6.59177 8.02146 6.65916 8.11076 6.76274C8.20007 6.86633 8.24928 6.9991 8.24928 7.13653C8.24928 7.27395 8.20007 7.40673 8.11076 7.51031C8.02146 7.6139 7.89808 7.68128 7.76345 7.70001L7.68695 7.70532H5.81195L5.73545 7.70001C5.61383 7.68313 5.50102 7.62648 5.41422 7.53871C5.32742 7.45093 5.2714 7.33686 5.2547 7.21388L5.24945 7.13577V4.10446L5.2547 4.02786C5.27125 3.90475 5.3272 3.79051 5.41402 3.70258C5.50083 3.61466 5.61373 3.5579 5.73545 3.54098L5.81195 3.53643V3.53567Z"
                    fill="currentColor"
                  />
                  <path d="M0.00320144 6.36903L1.20258 6.40779L1.2027
                  6.40383L0.00320144 6.36903ZM1.1282 6.4024L2.32757
                  6.44161L2.3277 6.4372L1.1282 6.4024ZM2.30795 3.34683L1.39471
                  2.56837L1.385 2.57977L1.37557 2.5914L2.30795 3.34683ZM2.15495
                  3.53567L1.22257 2.78024L-0.361731
                  4.73567H2.15495V3.53567ZM3.5627 3.53567L3.64578
                  2.33855L3.60429 2.33567H3.5627V3.53567ZM3.6392 3.54098L3.79858
                  2.35161L3.76055 2.34651L3.72228 2.34385L3.6392 3.54098ZM3.6392
                  4.66871L3.71045 5.86659L3.75467 5.86396L3.79858 5.85808L3.6392
                  4.66871ZM3.5627 4.67326V5.87326H3.59835L3.63395 5.87114L3.5627
                  4.67326ZM0.939201 4.67326L0.867954 5.87114L0.903546
                  5.87326H0.939201V4.67326ZM0.862701 4.66871L0.697438
                  5.85727L0.744262 5.86379L0.791454 5.86659L0.862701
                  4.66871ZM0.381951 4.18182L-0.815295 4.26307L-0.812619
                  4.30251L-0.807354 4.34168L0.381951 4.18182ZM0.376701
                  4.10446H-0.823299V4.14514L-0.820545 4.18572L0.376701
                  4.10446ZM0.376701 1.07088L-0.82049 0.988827L-0.823299
                  1.02981V1.07088H0.376701ZM0.381951 0.994284L-0.807354
                  0.834427L-0.812565 0.8732L-0.81524 0.912229L0.381951
                  0.994284ZM0.862701 0.507394L0.791448 -0.690488L0.74426
                  -0.687682L0.697438 -0.681171L0.862701 0.507394ZM0.939201
                  0.502844L1.01045 -0.695039L0.939201 -0.699277L0.867948
                  -0.695039L0.939201 0.502844ZM1.0157 0.507394L1.18096
                  -0.681171L1.13414 -0.687682L1.08695 -0.690488L1.0157
                  0.507394ZM1.49645 0.994284L2.69364 0.912231L2.69097
                  0.8732L2.68576 0.834427L1.49645 0.994284ZM1.5017
                  1.07088L2.7017 1.07149L2.70172 1.03011L2.69889 0.988829L1.5017
                  1.07088ZM1.50095 2.55203L0.300951 2.55142L0.299327
                  5.75884L2.40586 3.34015L1.50095 2.55203ZM5.81195
                  3.53567L5.89503 2.33855L4.61195
                  2.2495V3.53567H5.81195ZM5.88845 3.54098L6.05371
                  2.35241L6.01277 2.34672L5.97153 2.34385L5.88845
                  3.54098ZM6.3692 4.02786L7.56639 3.94581L7.56371 3.90678L7.5585
                  3.86801L6.3692 4.02786ZM6.37445
                  4.10446H7.57445V4.06339L7.57164 4.02241L6.37445
                  4.10446ZM6.37445 6.56697H5.17445V7.76628L6.37375
                  7.76697L6.37445 6.56697ZM7.68695 6.56773L7.77002
                  5.37061L7.72888 5.36775L7.68764 5.36773L7.68695
                  6.56773ZM7.76345 6.57304L7.92881 5.38449L7.88781
                  5.37878L7.84652 5.37592L7.76345 6.57304ZM7.76345
                  7.70001L7.84652 8.89714L7.88781 8.89427L7.92881
                  8.88857L7.76345 7.70001ZM7.68695
                  7.70532V8.90532H7.72853L7.77002 8.90244L7.68695
                  7.70532ZM5.81195 7.70532L5.72887 8.90244L5.77036
                  8.90532H5.81195V7.70532ZM5.73545 7.70001L5.57041
                  8.88861L5.61125 8.89428L5.65237 8.89714L5.73545
                  7.70001ZM5.2547 7.21388L4.0574 7.29435L4.06013 7.33499L4.06561
                  7.37535L5.2547 7.21388ZM5.24945
                  7.13577H4.04945V7.17605L4.05215 7.21624L5.24945
                  7.13577ZM5.24945 4.10446L4.05226 4.02241L4.04945
                  4.06339V4.10446H5.24945ZM5.2547 4.02786L4.06539
                  3.86801L4.06018 3.90678L4.05751 3.94581L5.2547
                  4.02786ZM5.73545 3.54098L5.6642 2.34309L5.61701 2.3459L5.57019
                  2.35241L5.73545 3.54098ZM5.81195 3.53643L5.8832
                  4.73431L7.01195 4.66717V3.53643H5.81195ZM5.62381
                  1.71498C6.58988 1.63796 7.55712 1.85923 8.39786
                  2.35085L9.60934 0.27906C8.34622 -0.459546 6.88979 -0.79356
                  5.43309 -0.677435L5.62381 1.71498ZM8.39786 2.35085C9.23878
                  2.84257 9.91443 3.58224 10.3333 4.47382L12.5055
                  3.45322C11.8815 2.12508 10.8723 1.01757 9.60934
                  0.27906L8.39786 2.35085ZM10.3333 4.47382C10.7523 5.36554
                  10.894 6.36586 10.7388 7.3419L13.109 7.71879C13.3396 6.2685
                  13.1295 4.78121 12.5055 3.45322L10.3333 4.47382ZM10.7388
                  7.3419C10.5836 8.31788 10.1393 9.2214 9.46669 9.93353L11.2115
                  11.5814C12.2175 10.5163 12.8784 9.16915 13.109 7.71879L10.7388
                  7.3419ZM9.46669 9.93353C8.79428 10.6455 7.92563 11.1325
                  6.97655 11.3325L7.47139 13.681C8.90151 13.3796 10.2054 12.6467
                  11.2115 11.5814L9.46669 9.93353ZM6.97655 11.3325C6.02757
                  11.5325 5.04078 11.4365 4.14614 11.0567L3.20818
                  13.2658C4.55432 13.8373 6.04118 13.9823 7.47139 13.681L6.97655
                  11.3325ZM4.14614 11.0567C3.25134 10.6767 2.48943 10.0301
                  1.96292 9.19999L-0.0637665 10.4855C0.72181 11.724 1.86219
                  12.6943 3.20818 13.2658L4.14614 11.0567ZM1.96292
                  9.19999C1.43631 8.36976 1.17064 7.39602 1.20258
                  6.40779L-1.19617 6.33028C-1.24361 7.79824 -0.849241 9.24716
                  -0.0637665 10.4855L1.96292 9.19999ZM1.2027 6.40383C1.19797
                  6.56684 1.12942 6.72415 1.00774 6.84017L-0.648503
                  5.10326C-0.987344 5.42637 -1.18281 5.86951 -1.19629
                  6.33424L1.2027 6.40383ZM1.00774 6.84017C0.88561 6.95663
                  0.719909 7.02153 0.546623 7.01639L0.617779 4.61745C0.146125
                  4.60346 -0.309201 4.77972 -0.648503 5.10326L1.00774
                  6.84017ZM0.546623 7.01639C0.373378 7.01125 0.212198 6.93671
                  0.0975134 6.81374L1.85272 5.17689C1.53324 4.83432 1.08939
                  4.63144 0.617779 4.61745L0.546623 7.01639ZM0.0975134
                  6.81374C-0.0167416 6.69122 -0.0760225 6.53059 -0.0712946
                  6.3676L2.3277 6.4372C2.34118 5.97251 2.17176 5.51901 1.85272
                  5.17689L0.0975134 6.81374ZM-0.0711583 6.36319C-0.118298
                  7.80501 0.340104 9.21889 1.22562 10.3548L3.11843
                  8.87925C2.57975 8.18824 2.29868 7.32481 2.32756
                  6.44161L-0.0711583 6.36319ZM1.22562 10.3548C2.11137 11.491
                  3.36813 12.2766 4.77535 12.5689L5.26353 10.2191C4.41728
                  10.0433 3.65687 9.56995 3.11843 8.87925L1.22562
                  10.3548ZM4.77535 12.5689C6.18274 12.8613 7.64655 12.6408
                  8.90716 11.9477L7.75094 9.84461C6.9904 10.2627 6.10961 10.3949
                  5.26353 10.2191L4.77535 12.5689ZM8.90716 11.9477C10.1674
                  11.2549 11.1418 10.1355 11.6612 8.79031L9.42225
                  7.92587C9.10496 8.74765 8.5118 9.42632 7.75094 9.84461L8.90716
                  11.9477ZM11.6612 8.79031C12.1805 7.44533 12.2126 5.95869
                  11.7522 4.59225L9.47786 5.3586C9.75939 6.19415 9.73962 7.10386
                  9.42225 7.92587L11.6612 8.79031ZM11.7522 4.59225C11.2917
                  3.22561 10.3671 2.06448 9.13838 1.31666L7.89061
                  3.36681C8.63296 3.81862 9.19639 4.52326 9.47786 5.3586L11.7522
                  4.59225ZM9.13838 1.31666C7.90936 0.568652 6.45667 0.283402
                  5.03781 0.513173L5.42147 2.88231C6.2742 2.74422 7.14858
                  2.91519 7.89061 3.36681L9.13838 1.31666ZM5.03781
                  0.513173C3.61909 0.742921 2.32914 1.47215 1.39471
                  2.56837L3.22119 4.12528C3.78875 3.45945 4.5686 3.02042 5.42147
                  2.88231L5.03781 0.513173ZM1.37557 2.5914L1.22257
                  2.78024L3.08733 4.29109L3.24033 4.10225L1.37557
                  2.5914ZM2.15495
                  4.73567H3.5627V2.33567H2.15495V4.73567ZM3.47962
                  4.73279L3.55612 4.7381L3.72228 2.34385L3.64578 2.33855L3.47962
                  4.73279ZM3.47982 4.73034C3.32302 4.70933 3.18193 4.63176
                  3.08148 4.51583L4.89526 2.94415C4.61505 2.62077 4.22578
                  2.40885 3.79858 2.35161L3.47982 4.73034ZM3.08148
                  4.51583C2.98132 4.40024 2.9278 4.25408 2.9278
                  4.10484H5.3278C5.3278 3.67979 5.17519 3.26719 4.89526
                  2.94415L3.08148 4.51583ZM2.9278 4.10484C2.9278 3.95561 2.98132
                  3.80944 3.08148 3.69385L4.89526 5.26554C5.17519 4.94249 5.3278
                  4.5299 5.3278 4.10484H2.9278ZM3.08148 3.69385C3.18193 3.57793
                  3.32302 3.50035 3.47982 3.47934L3.79858 5.85808C4.22578
                  5.80083 4.61505 5.58891 4.89526 5.26554L3.08148
                  3.69385ZM3.56795 3.47083L3.49145 3.47538L3.63395
                  5.87114L3.71045 5.86659L3.56795 3.47083ZM3.5627
                  3.47326H0.939201V5.87326H3.5627V3.47326ZM1.01045
                  3.47538L0.933948 3.47083L0.791454 5.86659L0.867954
                  5.87114L1.01045 3.47538ZM1.02796 3.48014C1.16904 3.49976
                  1.29773 3.56529 1.39516 3.66397L-0.312626 5.35023C-0.0415631
                  5.62475 0.312913 5.80381 0.697438 5.85727L1.02796
                  3.48014ZM1.39516 3.66397C1.49239 3.76244 1.55331 3.88845
                  1.57126 4.02196L-0.807354 4.34168C-0.756312 4.72142 -0.583481
                  5.07591 -0.312626 5.35023L1.39516 3.66397ZM1.5792
                  4.10057L1.57395 4.02321L-0.820545 4.18572L-0.815295
                  4.26307L1.5792 4.10057ZM1.5767
                  4.10446V1.07088H-0.823299V4.10446H1.5767ZM1.57389
                  1.15294L1.57914 1.07634L-0.81524 0.912229L-0.82049
                  0.988827L1.57389 1.15294ZM1.57126 1.15414C1.55331 1.28766
                  1.49239 1.41366 1.39516 1.51213L-0.312626 -0.174125C-0.583481
                  0.10019 -0.756312 0.454686 -0.807354 0.834427L1.57126
                  1.15414ZM1.39516 1.51213C1.29773 1.61081 1.16904 1.67634
                  1.02796 1.69596L0.697438 -0.681171C0.312914 -0.627706
                  -0.0415623 -0.44865 -0.312626 -0.174125L1.39516
                  1.51213ZM0.933954 1.70528L1.01045 1.70073L0.867948
                  -0.695039L0.791448 -0.690488L0.933954 1.70528ZM0.867948
                  1.70073L0.944448 1.70528L1.08695 -0.690488L1.01045
                  -0.695039L0.867948 1.70073ZM0.850438 1.69596C0.709361 1.67634
                  0.580675 1.61081 0.483238 1.51213L2.19103 -0.174125C1.91996
                  -0.448651 1.56549 -0.627706 1.18096 -0.681171L0.850438
                  1.69596ZM0.483238 1.51213C0.38601 1.41366 0.325092 1.28766
                  0.307146 1.15414L2.68576 0.834427C2.63471 0.454686 2.46188
                  0.10019 2.19103 -0.174125L0.483238 1.51213ZM0.299259
                  1.07634L0.304509 1.15294L2.69889 0.988829L2.69364
                  0.912231L0.299259 1.07634ZM0.301701 1.07027L0.300951
                  2.55142L2.70095 2.55264L2.7017 1.07149L0.301701
                  1.07027ZM2.40586 3.34015C3.23037 2.39346 4.38474 1.81208
                  5.62221 1.7151L5.43469 -0.677561C3.56601 -0.53111 1.8306
                  0.3464 0.59604 1.76391L2.40586 3.34015ZM5.72887
                  4.73279L5.80537 4.7381L5.97153 2.34385L5.89503 2.33855L5.72887
                  4.73279ZM5.72319 4.72954C5.58211 4.70993 5.45342 4.64439
                  5.35599 4.54571L7.06378 2.85946C6.79271 2.58493 6.43823
                  2.40588 6.05371 2.35241L5.72319 4.72954ZM5.35599
                  4.54571C5.25876 4.44724 5.19784 4.32124 5.17989 4.18772L7.5585
                  3.86801C7.50746 3.48827 7.33463 3.13377 7.06378
                  2.85946L5.35599 4.54571ZM5.17201 4.10992L5.17726
                  4.18652L7.57164 4.02241L7.56639 3.94581L5.17201
                  4.10992ZM5.17445
                  4.10446V6.56697H7.57445V4.10446H5.17445ZM6.37375
                  7.76697L7.68625 7.76773L7.68764 5.36773L6.37514
                  5.36697L6.37375 7.76697ZM7.60387 7.76485L7.68037
                  7.77016L7.84652 5.37592L7.77002 5.37061L7.60387
                  7.76485ZM7.59808 7.76159C7.44196 7.73987 7.30171 7.66207
                  7.20192 7.54633L9.01961 5.97916C8.7412 5.65625 8.3542 5.44367
                  7.92881 5.38449L7.59808 7.76159ZM7.20192 7.54633C7.10241
                  7.43091 7.04927 7.28524 7.04927 7.13653H9.44928C9.44928
                  6.71297 9.29773 6.30174 9.01961 5.97916L7.20192
                  7.54633ZM7.04927 7.13653C7.04927 6.98782 7.10241 6.84214
                  7.20192 6.72673L9.01961 8.2939C9.29773 7.97131 9.44928 7.56009
                  9.44928 7.13653H7.04927ZM7.20192 6.72673C7.30171 6.61098
                  7.44196 6.53319 7.59808 6.51146L7.92881 8.88857C8.3542 8.82938
                  8.7412 8.61681 9.01961 8.2939L7.20192 6.72673ZM7.68037
                  6.50289L7.60387 6.5082L7.77002 8.90244L7.84652 8.89714L7.68037
                  6.50289ZM7.68695
                  6.50532H5.81195V8.90532H7.68695V6.50532ZM5.89502
                  6.5082L5.81852 6.50289L5.65237 8.89714L5.72887 8.90244L5.89502
                  6.5082ZM5.90049 6.51142C6.04144 6.53099 6.17003 6.5964 6.26746
                  6.69491L4.56098 8.3825C4.83201 8.65656 5.18623 8.83527 5.57041
                  8.88861L5.90049 6.51142ZM6.26746 6.69491C6.36468 6.79322
                  6.42567 6.91904 6.44379 7.05241L4.06561 7.37535C4.11712
                  7.75467 4.29016 8.10865 4.56098 8.3825L6.26746 6.69491ZM6.452
                  7.13341L6.44675 7.0553L4.05215 7.21624L4.0574 7.29435L6.452
                  7.13341ZM6.44945
                  7.13577V4.10446H4.04945V7.13577H6.44945ZM6.44664
                  4.18652L6.45189 4.10992L4.05751 3.94581L4.05226
                  4.02241L6.44664 4.18652ZM6.444 4.18772C6.42606 4.32124 6.36514
                  4.44724 6.26791 4.54571L4.56012 2.85946C4.28926 3.13377
                  4.11644 3.48827 4.06539 3.86801L6.444 4.18772ZM6.26791
                  4.54571C6.17047 4.64439 6.04179 4.70993 5.90071
                  4.72954L5.57019 2.35241C5.18566 2.40588 4.83119 2.58493
                  4.56012 2.85946L6.26791 4.54571ZM5.8067 4.73886L5.8832
                  4.73431L5.7407 2.33854L5.6642 2.34309L5.8067 4.73886ZM7.01195
                  3.53643V3.53567H4.61195V3.53643H7.01195Z" fill="currentColor
                  mask="url(#path-1-inside-1_1_289)" />
                </svg>