<svg width="1em" height="1em" viewBox="0 0 12 13" fill="none">
  <path
    d="M1.2 5.83333V11.1667H3.6V5.83333H1.2ZM4.8 1.83333V11.1667H7.2V1.83333H4.8ZM8.4 7.16667V11.1667H10.8V7.16667H8.4ZM10.8 12.5H1.2C0.87 12.5 0.5876 12.3696 0.3528 12.1087C0.1176 11.8473 0 11.5333 0 11.1667V5.83333C0 5.46667 0.1176 5.15267 0.3528 4.89133C0.5876 4.63044 0.87 4.5 1.2 4.5H3.6V1.83333C3.6 1.46667 3.7176 1.15267 3.9528 0.891333C4.1876 0.630444 4.47 0.5 4.8 0.5H7.2C7.53 0.5 7.8126 0.630444 8.0478 0.891333C8.2826 1.15267 8.4 1.46667 8.4 1.83333V5.83333H10.8C11.13 5.83333 11.4126 5.96378 11.6478 6.22467C11.8826 6.486 12 6.8 12 7.16667V11.1667C12 11.5333 11.8826 11.8473 11.6478 12.1087C11.4126 12.3696 11.13 12.5 10.8 12.5Z"
    fill="currentColor"
  />
</svg>