<svg width="1em" height="1em" viewBox="0 0 12 13" fill="none">
                  <path
                    d="M3.36842 10.3841L3.80437 10.6174C4.47943 10.9783 5.23329 11.1665 5.99876 11.1653H6.00076C6.92362 11.1653 7.82576 10.8917 8.59309 10.3789C9.36042 9.86623 9.95849 9.13749 10.3117 8.28488C10.6648 7.43226 10.7572 6.49407 10.5772 5.58894C10.3971 4.68381 9.95273 3.85239 9.30017 3.19983C8.64761 2.54727 7.81619 2.10286 6.91106 1.92282C6.00593 1.74278 5.06774 1.83519 4.21512 2.18835C3.36251 2.54151 2.63377 3.13958 2.12105 3.90691C1.60834 4.67424 1.33468 5.57638 1.33468 6.49924V6.50124C1.3335 7.26671 1.52173 8.02057 1.88261 8.69563L2.11591 9.13158L1.75729 10.7427L3.36842 10.3841ZM0.00151179 12.4985L0.706756 9.32422C0.218782 8.41002 -0.0240634 7.38501 0.00188082 6.34905C0.027825 5.31309 0.321674 4.30152 0.854798 3.41289C1.38792 2.52426 2.14214 1.78888 3.04397 1.2784C3.94579 0.767914 4.96447 0.499739 6.00076 0.5C7.59185 0.5 9.11779 1.13206 10.2429 2.25714C11.3679 3.38221 12 4.90815 12 6.49924C12.0003 7.53553 11.7321 8.55421 11.2216 9.45603C10.7111 10.3579 9.97574 11.1121 9.08711 11.6452C8.19848 12.1783 7.18691 12.4722 6.15095 12.4981C5.11499 12.5241 4.08998 12.2812 3.17578 11.7932L0.00151179 12.4985Z"
                    fill="currentColor"
                  />
                </svg>