<svg width="1em" height="1em" viewBox="0 0 15 17" fill="none">
              <path
                d="M14.778 11.9699L13.141 8.94776V5.80111C13.141 2.6594 10.585 0.103424 7.44333 0.103424C4.30162 0.103424 1.74565 2.6594 1.74565 5.80111V8.94776L0.108618 11.9699C0.0343797 12.1069 -0.00298452 12.2609 0.000186238 12.4167C0.00335699 12.5725 0.0469539 12.7249 0.126705 12.8588C0.206456 12.9927 0.319626 13.1036 0.455125 13.1806C0.590625 13.2576 0.743805 13.2981 0.899658 13.2981H4.1584C4.14931 13.3978 4.14471 13.4978 4.14464 13.5979C4.14464 14.4728 4.49217 15.3118 5.11079 15.9304C5.72941 16.5491 6.56844 16.8966 7.4433 16.8966C8.31816 16.8966 9.15718 16.5491 9.7758 15.9304C10.3944 15.3118 10.742 14.4728 10.742 13.5979C10.742 13.4967 10.7371 13.3969 10.7282 13.2981H13.9869C14.1428 13.298 14.2959 13.2575 14.4314 13.1805C14.5669 13.1035 14.68 12.9926 14.7598 12.8587C14.8395 12.7248 14.8831 12.5725 14.8863 12.4167C14.8894 12.2609 14.8522 12.107 14.778 11.9699ZM9.54248 13.5979C9.54272 13.8864 9.48349 14.1718 9.3685 14.4364C9.25351 14.701 9.08522 14.939 8.87414 15.1356C8.66306 15.3322 8.41372 15.4833 8.14168 15.5792C7.86964 15.6752 7.58073 15.7141 7.293 15.6934C7.00527 15.6727 6.72488 15.593 6.46934 15.4591C6.2138 15.3253 5.98859 15.1402 5.80777 14.9154C5.62694 14.6907 5.49439 14.4311 5.41838 14.1528C5.34236 13.8745 5.32452 13.5835 5.36597 13.2981H9.52066C9.53508 13.3974 9.54237 13.4976 9.54248 13.5979ZM1.40312 12.0985L2.94516 9.25176V5.80111C2.94516 4.60812 3.41908 3.46399 4.26265 2.62042C5.10622 1.77685 6.25035 1.30294 7.44333 1.30294C8.63632 1.30294 9.78045 1.77685 10.624 2.62042C11.4676 3.46399 11.9415 4.60812 11.9415 5.80111V9.25176L13.4835 12.0985H1.40312Z"
                fill="white"
              />
              <circle cx="12" cy="3.10342" r="3" fill="#FC003C" />
            </svg>