<svg width="1em" height="1em" viewBox="0 0 12 13" fill="none">
                  <path
                    d="M11.5265 9.00725H3.56081L3.96076 8.10134L10.6062 8.08795C10.8309 8.08795 11.0235 7.90945 11.0637 7.66251L11.9839 1.93399C12.008 1.78375 11.9719 1.62904 11.8836 1.51153C11.84 1.45369 11.7856 1.40711 11.7241 1.375C11.6627 1.34289 11.5957 1.32603 11.5278 1.32559L3.07391 1.29435L3.00167 0.916512C2.95619 0.67553 2.7609 0.5 2.53885 0.5H0.472188C0.346956 0.5 0.226853 0.555323 0.138301 0.653799C0.0497483 0.752275 0 0.885837 0 1.0251C0 1.16437 0.0497483 1.29793 0.138301 1.39641C0.226853 1.49488 0.346956 1.5502 0.472188 1.5502H2.15628L2.47197 3.21923L3.24914 7.40368L2.24858 9.21997C2.19662 9.29796 2.16532 9.39056 2.15823 9.48731C2.15114 9.58405 2.16853 9.68107 2.20845 9.76739C2.28871 9.9444 2.45056 10.056 2.62981 10.056H3.46985C3.29076 10.3205 3.19403 10.6427 3.19429 10.9738C3.19429 11.8157 3.80961 12.5 4.56672 12.5C5.32382 12.5 5.93914 11.8157 5.93914 10.9738C5.93914 10.6421 5.84015 10.3193 5.66358 10.056H7.81853C7.63944 10.3205 7.54271 10.6427 7.54297 10.9738C7.54297 11.8157 8.15829 12.5 8.91539 12.5C9.6725 12.5 10.2878 11.8157 10.2878 10.9738C10.2878 10.6421 10.1888 10.3193 10.0123 10.056H11.5278C11.7873 10.056 12 9.82094 12 9.53087C11.9992 9.39175 11.949 9.25861 11.8603 9.16052C11.7716 9.06242 11.6516 9.00733 11.5265 9.00725ZM3.27054 2.32968L10.9727 2.35794L10.2183 7.0556L4.1681 7.0675L3.27054 2.32968ZM4.56672 11.4438C4.33397 11.4438 4.14402 11.2326 4.14402 10.9738C4.14402 10.7149 4.33397 10.5037 4.56672 10.5037C4.79947 10.5037 4.98941 10.7149 4.98941 10.9738C4.98941 11.0984 4.94488 11.218 4.86561 11.3062C4.78633 11.3943 4.67882 11.4438 4.56672 11.4438ZM8.91539 11.4438C8.68264 11.4438 8.4927 11.2326 8.4927 10.9738C8.4927 10.7149 8.68264 10.5037 8.91539 10.5037C9.14814 10.5037 9.33809 10.7149 9.33809 10.9738C9.33809 11.0984 9.29356 11.218 9.21428 11.3062C9.13501 11.3943 9.0275 11.4438 8.91539 11.4438Z"
                    fill="currentColor"
                  />
                </svg>