<svg width="1em" height="1em" viewBox="0 0 23 25" fill="none">
                    <path
                      d="M17.3006 6.24477H20.9059C21.1239 6.24499 21.3342 6.32613 21.4958 6.47249C21.6574 6.61885 21.759 6.81999 21.7808 7.03696L22.3177 12.4062H20.5468L20.1067 8.00519H17.3006V10.6458C17.3006 10.8793 17.2078 11.1031 17.0427 11.2682C16.8777 11.4333 16.6538 11.526 16.4203 11.526C16.1869 11.526 15.963 11.4333 15.7979 11.2682C15.6329 11.1031 15.5401 10.8793 15.5401 10.6458V8.00519H8.49847V10.6458C8.49847 10.8793 8.40574 11.1031 8.24066 11.2682C8.07559 11.4333 7.85171 11.526 7.61826 11.526C7.38482 11.526 7.16093 11.4333 6.99586 11.2682C6.83079 11.1031 6.73805 10.8793 6.73805 10.6458V8.00519H3.93019L2.52186 22.0885H12.0193V23.8489H1.54835C1.42541 23.8488 1.30385 23.8229 1.19152 23.773C1.07919 23.723 0.97857 23.6501 0.896143 23.5589C0.813717 23.4677 0.751314 23.3602 0.712953 23.2434C0.674592 23.1266 0.661124 23.003 0.673419 22.8807L2.25779 7.03696C2.2796 6.81999 2.38116 6.61885 2.54281 6.47249C2.70445 6.32613 2.91466 6.24499 3.13272 6.24477H6.73805V5.63039C6.73805 2.57782 9.08997 0.083313 12.0193 0.083313C14.9486 0.083313 17.3006 2.57782 17.3006 5.63039V6.24653V6.24477ZM15.5401 6.24477V5.63039C15.5401 3.52845 13.9522 1.84373 12.0193 1.84373C10.0864 1.84373 8.49847 3.52845 8.49847 5.63039V6.24653H15.5401V6.24477ZM21.0802 19.3423C21.1605 19.2549 21.2576 19.1847 21.3657 19.1358C21.4739 19.0869 21.5907 19.0604 21.7094 19.0579C21.828 19.0554 21.9459 19.0768 22.0561 19.121C22.1662 19.1652 22.2662 19.2312 22.3502 19.3151C22.4342 19.3989 22.5003 19.4989 22.5447 19.6089C22.589 19.719 22.6106 19.8369 22.6083 19.9555C22.6059 20.0741 22.5796 20.1911 22.5308 20.2993C22.4821 20.4075 22.412 20.5047 22.3248 20.5851L18.8039 24.106C18.6389 24.271 18.415 24.3637 18.1816 24.3637C17.9482 24.3637 17.7244 24.271 17.5593 24.106L14.0385 20.5851C13.9544 20.5039 13.8874 20.4068 13.8412 20.2994C13.7951 20.192 13.7708 20.0765 13.7698 19.9597C13.7688 19.8428 13.7911 19.7269 13.8353 19.6187C13.8796 19.5105 13.9449 19.4122 14.0276 19.3296C14.1102 19.247 14.2085 19.1816 14.3167 19.1373C14.4249 19.0931 14.5408 19.0708 14.6576 19.0718C14.7745 19.0728 14.89 19.0971 14.9974 19.1433C15.1048 19.1894 15.2019 19.2564 15.2831 19.3405L17.3006 21.3597V15.0469C17.3006 14.8134 17.3933 14.5895 17.5584 14.4245C17.7234 14.2594 17.9473 14.1666 18.1808 14.1666C18.4142 14.1666 18.6381 14.2594 18.8032 14.4245C18.9682 14.5895 19.061 14.8134 19.061 15.0469V21.3597L21.0802 19.3405V19.3423Z"
                      fill="#F2C8ED"
                    />
                  </svg>