<svg width="1em" height="1em" viewBox="0 0 14 13" fill="none">
                  <path
                    d="M1.54985 5.20408C1.57717 4.90337 1.73174 4.62277 1.98276 4.41818C2.23378 4.21359 2.56284 4.10002 2.9044 4.10008H11.0956C11.4372 4.10002 11.7662 4.21359 12.0172 4.41818C12.2683 4.62277 12.4228 4.90337 12.4502 5.20408L12.9956 11.2041C13.0106 11.3692 12.9868 11.5353 12.9256 11.6918C12.8643 11.8484 12.7671 11.9921 12.6399 12.1138C12.5127 12.2356 12.3584 12.3327 12.1866 12.3992C12.0148 12.4657 11.8293 12.5 11.6418 12.5001H2.35823C2.17069 12.5 1.98519 12.4657 1.81341 12.3992C1.64163 12.3327 1.48729 12.2356 1.36011 12.1138C1.23293 11.9921 1.13567 11.8484 1.07444 11.6918C1.01321 11.5353 0.989351 11.3692 1.00435 11.2041L1.54985 5.20408V5.20408Z"
                    stroke="currentColor"
                    stroke-linecap="round"
                    stroke-linejoin="round"
                  />
                  <path
                    d="M9.7167 5.9V2.9C9.7167 2.26348 9.43041 1.65303 8.92083 1.20294C8.41124 0.752857 7.72009 0.5 6.99943 0.5C6.27877 0.5 5.58762 0.752857 5.07803 1.20294C4.56845 1.65303 4.28217 2.26348 4.28217 2.9V5.9"
                    stroke="currentColor"
                    stroke-linecap="round"
                    stroke-linejoin="round"
                  />
                </svg>