<svg width="1em" height="1em" viewBox="0 0 14 15" fill="none">
  <g style="mix-blend-mode: darken">
    <rect y="0.5" width="14" height="14" fill="none" />
  </g>
  <path
    d="M7 7.5C7.79565 7.5 8.55871 7.18393 9.12132 6.62132C9.68393 6.05871 10 5.29565 10 4.5C10 3.70435 9.68393 2.94129 9.12132 2.37868C8.55871 1.81607 7.79565 1.5 7 1.5C6.20435 1.5 5.44129 1.81607 4.87868 2.37868C4.31607 2.94129 4 3.70435 4 4.5C4 5.29565 4.31607 6.05871 4.87868 6.62132C5.44129 7.18393 6.20435 7.5 7 7.5ZM9 4.5C9 5.03043 8.78929 5.53914 8.41421 5.91421C8.03914 6.28929 7.53043 6.5 7 6.5C6.46957 6.5 5.96086 6.28929 5.58579 5.91421C5.21071 5.53914 5 5.03043 5 4.5C5 3.96957 5.21071 3.46086 5.58579 3.08579C5.96086 2.71071 6.46957 2.5 7 2.5C7.53043 2.5 8.03914 2.71071 8.41421 3.08579C8.78929 3.46086 9 3.96957 9 4.5ZM13 12.5C13 13.5 12 13.5 12 13.5H2C2 13.5 1 13.5 1 12.5C1 11.5 2 8.5 7 8.5C12 8.5 13 11.5 13 12.5ZM12 12.496C11.999 12.25 11.846 11.51 11.168 10.832C10.516 10.18 9.289 9.5 7 9.5C4.71 9.5 3.484 10.18 2.832 10.832C2.154 11.51 2.002 12.25 2 12.496H12Z"
    fill="currentColor"
  />
</svg>