<svg width="1em" height="1em" viewBox="0 0 14 13" fill="none">
                  <path
                    fill-rule="evenodd"
                    clip-rule="evenodd"
                    d="M1 0.5H1.75V11.75H13V12.5H1V0.5ZM12.1128 2.83475C12.1509 2.86596 12.1825 2.90437 12.2058 2.94781C12.2291 2.99124 12.2436 3.03883 12.2484 3.08787C12.2533 3.13691 12.2485 3.18642 12.2342 3.23359C12.2199 3.28075 12.1965 3.32464 12.1652 3.36275L8.79025 7.48775C8.75708 7.52824 8.7158 7.56134 8.66906 7.58491C8.62233 7.60848 8.57118 7.62201 8.5189 7.62463C8.46662 7.62724 8.41438 7.61888 8.36552 7.60009C8.31667 7.58129 8.2723 7.55248 8.23525 7.5155L6.295 5.57525L3.553 9.3455C3.49302 9.42177 3.4058 9.47183 3.30969 9.48514C3.21357 9.49846 3.11604 9.47399 3.03758 9.4169C2.95912 9.3598 2.90585 9.27452 2.88896 9.17897C2.87207 9.08341 2.89287 8.98503 2.947 8.9045L5.947 4.7795C5.97884 4.73564 6.01982 4.6992 6.0671 4.67269C6.11438 4.64619 6.16684 4.63025 6.22088 4.62597C6.27491 4.62169 6.32923 4.62918 6.38009 4.64791C6.43096 4.66665 6.47715 4.69619 6.5155 4.7345L8.47225 6.692L11.5848 2.88725C11.616 2.84911 11.6544 2.8175 11.6978 2.79422C11.7412 2.77094 11.7888 2.75644 11.8379 2.75157C11.8869 2.74669 11.9364 2.75153 11.9836 2.7658C12.0308 2.78007 12.0746 2.8035 12.1128 2.83475Z"
                    fill="currentColor"
                    stroke="currentColor"
                    stroke-width="0.5"
                  />
                </svg>