<svg width="1em" height="1em" viewBox="0 0 21 25" fill="none">
                    <path
                      d="M15.4987 2.69315H18.2645C18.5609 2.69315 18.8451 2.81204 19.0547 3.02367C19.2643 3.2353 19.382 3.52233 19.382 3.82163V22.4415C19.382 22.7408 19.2643 23.0279 19.0547 23.2395C18.8451 23.4511 18.5609 23.57 18.2645 23.57H2.61951C2.32313 23.57 2.03889 23.4511 1.82932 23.2395C1.61975 23.0279 1.50201 22.7408 1.50201 22.4415V3.82163C1.50201 3.52233 1.61975 3.2353 1.82932 3.02367C2.03889 2.81204 2.32313 2.69315 2.61951 2.69315H6.53076V4.38587H14.3533V2.69315H15.4987Z"
                      stroke="#A9DFD8"
                      stroke-width="1.5"
                      stroke-linejoin="round"
                    />
                    <path
                      d="M12.1187 9.4636L7.64867 13.9781H13.2384L8.76617 18.492M6.53117 1H14.3537V4.38544H6.53117V1Z"
                      stroke="#A9DFD8"
                      stroke-width="1.5"
                      stroke-linecap="round"
                      stroke-linejoin="round"
                    />
                  </svg>